<svg xmlns="http://www.w3.org/2000/svg" width="137.663" height="55.405" viewBox="0 0 137.663 55.405"><g transform="translate(-12.553 -143.769)"><rect width="137.663" height="55.405" fill="#dc000c" transform="translate(12.553 143.769)"/><path class="b" d="M148.446,176.924v-8.483h-23.6l-3.885,28.334-3.837-28.334h-8.51l.953,7.564a13.454,13.454,0,0,0-12.133-7.564c-.051,0-8.521,0-8.521,0l-.032,41.3-6.2-41.3-11.145,0-6.417,42.788V168.441H54.451l-3.845,24.035L46.86,168.441H36.189v46.518h8.4V192.537l3.824,22.422h4.466l3.769-22.422v22.422h16.2l.98-7.155h6.522l.979,7.155,15.9.008h.011v-.008h.021v-15.1l1.949-.284,4.035,15.392h8.227l0-.008h.023l-5.3-18.039c2.682-1.988,5.714-7.029,4.908-11.853v0c.008.061,5,29.923,5,29.923l9.785-.03,6.687-42.163v42.163h15.862v-8.367h-7.53V195.926h7.53v-8.494h-7.53V176.924Zm-73.624,23.5,2.307-19.89,2.394,19.89Zm24.425-9.183a4.594,4.594,0,0,1-1.976.467V176.751h.042c.657,0,5.564.2,5.564,7.4C102.876,187.915,101.206,190.291,99.246,191.245Zm66.129,15.341v8.365H149.9V168.434h8.334v38.152Z" fill="#fff" transform="translate(-19.396 -20.241)"/></g></svg>